<?xml version="1.0" encoding="UTF-8"?>
<svg version="1.1" xmlns="http://www.w3.org/2000/svg" width="16" height="16">
<path d="M0 0 C0.66 0 1.32 0 2 0 C2.33 1.98 2.66 3.96 3 6 C3.66 6 4.32 6 5 6 C5.33 9.3 5.66 12.6 6 16 C2.04 16 -1.92 16 -6 16 C-4.23196827 10.52752083 -2.34565002 5.24978815 0 0 Z " fill="#4B4B4C" transform="translate(8,0)"/>
<path d="M0 0 C0.66 0 1.32 0 2 0 C2.33 3.3 2.66 6.6 3 10 C0.69 10 -1.62 10 -4 10 C-2.68 6.7 -1.36 3.4 0 0 Z " fill="#469DF5" transform="translate(11,6)"/>
</svg>
