<?xml version="1.0" encoding="UTF-8"?>
<svg version="1.1" xmlns="http://www.w3.org/2000/svg" width="48" height="48">
<path d="M0 0 C0.66 0 1.32 0 2 0 C2.66 9.24 3.32 18.48 4 28 C5.65 24.7 7.3 21.4 9 18 C9.66 18 10.32 18 11 18 C11.83963669 22.08206348 12.67061559 26.1658422 13.5 30.25 C13.73847656 31.40886719 13.97695313 32.56773438 14.22265625 33.76171875 C14.44824219 34.87675781 14.67382812 35.99179687 14.90625 37.140625 C15.11572266 38.16704102 15.32519531 39.19345703 15.54101562 40.25097656 C16 43 16 43 16 47 C4.78 47 -6.44 47 -18 47 C-6.00683371 15.3143508 -6.00683371 15.3143508 0 0 Z " fill="#464747" transform="translate(25,1)"/>
<path d="M0 0 C0.66 0 1.32 0 2 0 C2.83963669 4.08206348 3.67061559 8.1658422 4.5 12.25 C4.73847656 13.40886719 4.97695313 14.56773438 5.22265625 15.76171875 C5.44824219 16.87675781 5.67382812 17.99179687 5.90625 19.140625 C6.11572266 20.16704102 6.32519531 21.19345703 6.54101562 22.25097656 C7 25 7 25 7 29 C0.73 29 -5.54 29 -12 29 C-11 24 -11 24 -9.44140625 21.171875 C-7.67280661 17.2799972 -7.76534314 14.49933521 -7.9375 10.25 C-8.02983792 7.83500818 -8.06646456 5.41584235 -8 3 C-7.34 2.34 -6.68 1.68 -6 1 C-5.67 3.97 -5.34 6.94 -5 10 C-3.35 6.7 -1.7 3.4 0 0 Z " fill="#4CA0F4" transform="translate(34,19)"/>
<path d="M0 0 C0.33 0 0.66 0 1 0 C1 3.3 1 6.6 1 10 C-0.65 10 -2.3 10 -4 10 C-2.8905928 6.51329166 -1.73662334 3.22515763 0 0 Z " fill="#1568BC" transform="translate(26,37)"/>
<path d="M0 0 C0.66 0 1.32 0 2 0 C2 2.97 2 5.94 2 9 C1.34 8.34 0.68 7.68 0 7 C-0.99 7.99 -1.98 8.98 -3 10 C-2.01 6.7 -1.02 3.4 0 0 Z " fill="#666666" transform="translate(25,1)"/>
</svg>
