<?xml version="1.0" encoding="UTF-8"?>
<svg version="1.1" xmlns="http://www.w3.org/2000/svg" width="32" height="32">
<path d="M0 0 C0.66 0 1.32 0 2 0 C2.66 5.61 3.32 11.22 4 17 C4.66 15.35 5.32 13.7 6 12 C6.99 12.33 7.98 12.66 9 13 C9.99 19.27 10.98 25.54 12 32 C4.41 32 -3.18 32 -11 32 C-10.23187711 28.15938557 -9.40050826 25.19386089 -7.96875 21.62109375 C-7.57042969 20.61755859 -7.17210937 19.61402344 -6.76171875 18.58007812 C-6.34535156 17.54302734 -5.92898437 16.50597656 -5.5 15.4375 C-4.67483787 13.37459468 -3.85183147 11.31082544 -3.03125 9.24609375 C-2.66580078 8.33529053 -2.30035156 7.4244873 -1.92382812 6.48608398 C-1.12293426 4.33082441 -0.49998016 2.24107601 0 0 Z " fill="#4C4C4C" transform="translate(16,0)"/>
<path d="M0 0 C0.99 0.33 1.98 0.66 3 1 C3.99 7.27 4.98 13.54 6 20 C1.71 20 -2.58 20 -7 20 C-6.33533318 16.67666588 -5.82159397 14.24432568 -4.58984375 11.23046875 C-4.32236328 10.56982422 -4.05488281 9.90917969 -3.77929688 9.22851562 C-3.50150391 8.55498047 -3.22371094 7.88144531 -2.9375 7.1875 C-2.51500977 6.14819336 -2.51500977 6.14819336 -2.08398438 5.08789062 C-1.39325027 3.39032376 -0.69716272 1.69493688 0 0 Z " fill="#459DF6" transform="translate(22,12)"/>
</svg>
